HIERARCHY
ROOT Hips
{
	OFFSET -0.001795 -0.223333 0.028219
	CHANNELS 6 Xposition Yposition Zposition Zrotation Yrotation Xrotation 
	JOINT LeftUpLeg
	{
		OFFSET 0.069520 -0.091406 -0.006815
		CHANNELS 3 Zrotation Yrotation Xrotation
		JOINT LeftLeg
		{
			OFFSET 0.034277 -0.375199 -0.004496
			CHANNELS 3 Zrotation Yrotation Xrotation
			JOINT LeftFoot
			{
				OFFSET -0.013596 -0.397961 -0.043693
				CHANNELS 3 Zrotation Yrotation Xrotation
				JOINT LeftToe
				{
					OFFSET 0.026358 -0.055791 0.119288
					CHANNELS 3 Zrotation Yrotation Xrotation
					End Site
					{
						OFFSET 0.000000 0.000000 0.000000
					}
				}
			}
		}
	}
	JOINT RightUpLeg
	{
		OFFSET -0.067670 -0.090522 -0.004320
		CHANNELS 3 Zrotation Yrotation Xrotation
		JOINT RightLeg
		{
			OFFSET -0.038290 -0.382569 -0.008850
			CHANNELS 3 Zrotation Yrotation Xrotation
			JOINT RightFoot
			{
				OFFSET 0.015774 -0.398415 -0.042312
				CHANNELS 3 Zrotation Yrotation Xrotation
				JOINT RightToe
				{
					OFFSET -0.025372 -0.048144 0.123348
					CHANNELS 3 Zrotation Yrotation Xrotation
					End Site
					{
						OFFSET 0.000000 0.000000 0.000000
					}
				}
			}
		}
	}
	JOINT Spine
	{
		OFFSET -0.002533 0.108963 -0.026696
		CHANNELS 3 Zrotation Yrotation Xrotation
		JOINT Spine1
		{
			OFFSET 0.005487 0.135180 0.001092
			CHANNELS 3 Zrotation Yrotation Xrotation
			JOINT Spine2
			{
				OFFSET 0.001457 0.052922 0.025425
				CHANNELS 3 Zrotation Yrotation Xrotation
				JOINT Neck
				{
					OFFSET -0.002778 0.213870 -0.042857
					CHANNELS 3 Zrotation Yrotation Xrotation
					JOINT Head
					{
						OFFSET 0.005152 0.064970 0.051349
						CHANNELS 3 Zrotation Yrotation Xrotation
						End Site
						{
							OFFSET 0.000000 0.000000 0.000000
						}
					}
				}
				JOINT LeftShoulder
				{
					OFFSET 0.078845 0.121749 -0.034090
					CHANNELS 3 Zrotation Yrotation Xrotation
					JOINT LeftArm
					{
						OFFSET 0.090977 0.030469 -0.008868
						CHANNELS 3 Zrotation Yrotation Xrotation
						JOINT LeftForeArm
						{
							OFFSET 0.259612 -0.012772 -0.027456
							CHANNELS 3 Zrotation Yrotation Xrotation
							JOINT LeftHand
							{
								OFFSET 0.249234 0.008986 -0.001171
								CHANNELS 3 Zrotation Yrotation Xrotation
								End Site
								{
									OFFSET 0.000000 0.000000 0.000000
								}
							}
						}
					}
				}
				JOINT RightShoulder
				{
					OFFSET -0.081759 0.118833 -0.038615
					CHANNELS 3 Zrotation Yrotation Xrotation
					JOINT RightArm
					{
						OFFSET -0.096012 0.032551 -0.009143
						CHANNELS 3 Zrotation Yrotation Xrotation
						JOINT RightForeArm
						{
							OFFSET -0.253742 -0.013329 -0.021401
							CHANNELS 3 Zrotation Yrotation Xrotation
							JOINT RightHand
							{
								OFFSET -0.255298 0.007772 -0.005559
								CHANNELS 3 Zrotation Yrotation Xrotation
								End Site
								{
									OFFSET 0.000000 0.000000 0.000000
								}
							}
						}
					}
				}
			}
		}
	}
}
MOTION
Frames: 18
Frame Time: 0.050000
-0.970702 0.932023 2.922153 -2.141392 -11.206951 -8.878041 2.096928 3.332061 28.727643 5.049784 -1.319565 10.207814 -8.095798 -8.102963 16.718792 0.000000 0.000000 0.000000 6.466632 2.213225 -13.716178 -4.469489 1.671285 12.725497 -0.999225 -10.108106 17.392611 0.000000 0.000000 0.000000 -3.164729 -0.104046 9.054177 4.258834 -2.025607 -2.251838 0.427603 -12.592083 0.997781 -2.919234 1.255408 -13.883415 0.000000 0.000000 0.000000 -15.388626 5.446636 -1.162798 -48.636685 -14.039391 -0.283037 -9.768554 -33.296266 5.722130 0.000000 0.000000 0.000000 13.085810 2.679176 -3.267213 49.601198 3.806891 -2.440417 5.504396 24.661597 0.706808 0.000000 0.000000 0.000000 
-1.000309 0.937699 2.958681 -2.860286 -11.686256 -8.465740 4.566484 2.707068 27.895051 4.264396 -1.362837 14.835296 -8.911605 -7.378838 20.801901 0.000000 0.000000 0.000000 8.951792 1.939016 -10.896606 -4.622297 1.636546 12.124604 -0.866421 -9.877060 17.196362 0.000000 0.000000 0.000000 -4.363003 -0.023203 8.559722 4.487233 -2.142110 -1.826187 0.243725 -12.920964 0.543458 -3.020606 1.291114 -13.902519 0.000000 0.000000 0.000000 -15.489283 5.381805 -1.050827 -47.915149 -11.714072 -1.250120 -10.419834 -29.774815 5.155509 0.000000 0.000000 0.000000 14.311105 4.165117 -3.149673 50.020979 5.258797 -1.646097 5.262422 25.115270 0.629119 0.000000 0.000000 0.000000 
-1.027939 0.940940 2.993520 -3.805191 -11.834429 -8.198023 6.691938 1.997150 25.322328 4.731692 -1.713306 20.447323 -10.886872 -7.001081 27.356724 0.000000 0.000000 0.000000 11.297661 1.530743 -7.904724 -4.467169 1.510164 11.306621 -1.277425 -9.859009 15.047601 0.000000 0.000000 0.000000 -5.638941 0.040326 7.576735 4.968972 -2.361810 -1.742734 0.278676 -13.188160 0.898383 -1.902770 0.583467 -13.062330 0.000000 0.000000 0.000000 -15.806105 4.805666 -0.629840 -47.451372 -9.700743 -2.152190 -10.176785 -27.359493 4.576129 0.000000 0.000000 0.000000 14.432712 5.804107 -2.545020 51.049420 7.182865 -0.930453 4.466454 26.746675 0.447608 0.000000 0.000000 0.000000 
-1.052440 0.941254 3.026350 -4.711129 -12.001636 -8.111284 8.087018 1.402184 21.009656 4.567055 -1.871448 28.717733 -9.832827 -4.793405 28.957025 0.000000 0.000000 0.000000 13.339733 0.993921 -4.808278 -4.209624 1.348167 10.300482 -1.638630 -9.723638 12.802904 0.000000 0.000000 0.000000 -6.592354 0.065056 6.463894 5.417211 -2.627020 -0.397315 -0.285324 -12.796484 0.363421 -1.914850 0.675685 -12.500975 0.000000 0.000000 0.000000 -14.583320 5.631706 -1.288186 -48.190769 -8.832354 -2.246558 -9.591402 -26.000693 4.155067 0.000000 0.000000 0.000000 13.914511 7.177261 -1.698114 52.706188 9.582604 -0.050023 4.136393 27.552041 0.402109 0.000000 0.000000 0.000000 
-1.074208 0.938985 3.056727 -5.675852 -12.423401 -8.408986 10.178650 0.871848 15.622854 3.345602 -1.328665 39.765061 -9.046153 -3.656840 28.749265 0.000000 0.000000 0.000000 15.627637 0.493356 -2.113228 -4.469455 1.417185 10.472869 -2.006291 -9.600068 10.535720 0.000000 0.000000 0.000000 -6.124001 0.031319 6.353551 4.970263 -2.373234 -1.500331 -0.817937 -10.684838 0.795706 -1.340952 0.450454 -12.237220 0.000000 0.000000 0.000000 -14.390622 4.770479 -1.124177 -47.867178 -7.833182 -2.680811 -10.019558 -25.444926 4.057895 0.000000 0.000000 0.000000 13.183398 6.200106 -1.514061 53.956322 10.128705 -0.104820 5.343347 28.015837 0.819035 0.000000 0.000000 0.000000 
-1.093434 0.933444 3.084964 -6.213390 -12.613577 -10.209084 11.888873 0.650972 9.658465 2.812162 -0.805002 52.989702 -8.128509 -2.844350 26.829713 0.000000 0.000000 0.000000 16.720140 -0.262030 1.528222 -3.633950 1.342475 11.347044 -2.674459 -9.751853 7.589717 0.000000 0.000000 0.000000 -5.642106 0.005784 7.880100 2.826596 -1.393653 -1.651232 0.386646 -9.969660 0.830352 -2.396845 1.105303 -13.415631 0.000000 0.000000 0.000000 -14.423452 6.020882 -1.849456 -47.484723 -7.280727 -2.916967 -12.486093 -25.454783 4.659074 0.000000 0.000000 0.000000 11.662746 8.076468 -0.277914 53.932974 11.734175 0.477477 8.070076 29.493625 1.485231 0.000000 0.000000 0.000000 
-1.110223 0.927432 3.111631 -6.218338 -13.068379 -11.666302 11.992858 0.662091 2.307502 3.466019 -0.840959 62.984597 -6.633077 -2.647382 21.582893 0.000000 0.000000 0.000000 17.884340 -0.894760 4.484773 -4.182038 1.575342 12.463002 -3.270350 -9.881703 4.766878 0.000000 0.000000 0.000000 -5.354502 -0.015960 8.662122 1.760018 -0.897140 -2.816226 -0.624290 -6.433711 2.286971 -1.237619 0.633582 -12.179739 0.000000 0.000000 0.000000 -13.671526 5.829392 -2.235286 -47.462786 -7.780121 -2.763637 -12.446619 -24.016192 4.196928 0.000000 0.000000 0.000000 13.176155 7.548314 -0.187597 53.495381 14.108245 1.515113 8.390714 28.666872 1.833298 0.000000 0.000000 0.000000 
-1.124439 0.921206 3.137669 -5.991431 -13.547657 -13.412003 10.797693 0.668552 -4.621960 4.009300 -0.952436 68.200022 -3.358617 -0.405143 14.427695 0.000000 0.000000 0.000000 17.745275 -1.483680 7.398296 -3.222522 1.540507 14.045714 -3.750204 -9.838317 2.063422 0.000000 0.000000 0.000000 -5.441584 -0.013439 9.606089 0.315595 -0.242672 -2.887593 0.276361 -4.247987 2.708953 -1.195295 0.748696 -12.197498 0.000000 0.000000 0.000000 -13.444290 5.571415 -2.347731 -47.623466 -6.281519 -3.355186 -13.134463 -24.771322 4.415706 0.000000 0.000000 0.000000 14.409695 8.214130 0.247553 53.217777 15.281768 2.040192 8.857334 29.173940 2.133638 0.000000 0.000000 0.000000 
-1.135758 0.918041 3.163709 -5.404735 -14.011518 -14.325305 8.523634 0.430705 -10.972186 4.230610 -0.809783 67.260270 -0.621049 2.766203 10.856584 0.000000 0.000000 0.000000 17.893401 -2.055992 10.139556 -4.051007 1.739373 14.108729 -3.974697 -9.642384 0.415869 0.000000 0.000000 0.000000 -5.721944 0.007714 9.943145 -0.409178 0.084670 -3.091803 0.163477 -1.539414 3.485031 -0.566943 0.537508 -12.348361 0.000000 0.000000 0.000000 -13.244901 5.617694 -2.680649 -47.545669 -5.220463 -3.784618 -12.781750 -24.562249 4.168663 0.000000 0.000000 0.000000 15.183766 7.602314 0.388754 53.960454 16.804224 2.605067 8.754388 29.195695 2.335416 0.000000 0.000000 0.000000 
-1.143899 0.918470 3.190457 -4.189239 -14.862437 -15.402348 5.535671 -0.084929 -15.955488 4.492630 -0.707819 60.065465 1.364534 5.275380 8.561863 0.000000 0.000000 0.000000 16.872363 -2.448781 12.702343 -4.625290 1.945267 14.602983 -3.770650 -8.952673 0.018118 0.000000 0.000000 0.000000 -5.931842 0.035374 10.341210 -0.973952 0.348351 -2.451060 0.609609 0.614814 2.889964 -0.247667 0.509528 -13.176757 0.000000 0.000000 0.000000 -12.894993 6.606840 -3.360336 -47.492426 -3.447115 -4.360600 -14.148021 -24.194205 4.313141 0.000000 0.000000 0.000000 14.801859 7.392756 0.663738 54.690731 17.632919 2.991493 9.703474 29.372416 2.698507 0.000000 0.000000 0.000000 
-1.149464 0.921549 3.219215 -3.459660 -14.747969 -15.358454 2.877826 -0.686671 -18.112886 4.890146 -1.330144 47.292108 2.185487 5.950141 6.160194 0.000000 0.000000 0.000000 16.451509 -2.841541 14.877961 -5.752563 2.073682 13.586203 -3.546904 -8.888728 1.051000 0.000000 0.000000 0.000000 -5.947790 0.026915 9.977702 -1.007951 0.365000 -2.423672 0.559005 2.086318 2.910925 0.013780 0.512606 -14.012232 0.000000 0.000000 0.000000 -12.707753 6.922057 -3.674069 -47.800242 -1.477397 -5.117814 -14.082418 -24.243274 4.232486 0.000000 0.000000 0.000000 13.910848 6.253431 0.538502 56.271856 18.979553 3.641551 10.454861 28.676228 2.927976 0.000000 0.000000 0.000000 
-1.153480 0.925369 3.250639 -2.841667 -14.923379 -14.940073 1.227300 -1.029541 -17.913893 4.144943 -1.247587 31.075770 1.466663 4.535134 6.508260 0.000000 0.000000 0.000000 15.598943 -3.174262 17.161943 -6.416611 2.009221 11.972947 -2.984726 -8.299976 2.561621 0.000000 0.000000 0.000000 -5.531220 -0.024929 8.743861 -0.920105 0.339755 -1.709845 0.460795 3.281977 2.312213 0.080263 0.567320 -13.765749 0.000000 0.000000 0.000000 -11.535337 7.924677 -4.139607 -49.125537 0.832426 -6.057263 -14.408124 -23.434216 4.097465 0.000000 0.000000 0.000000 13.060439 6.145543 0.772996 57.235008 19.053886 3.774930 11.607021 29.352201 3.363476 0.000000 0.000000 0.000000 
-1.156802 0.928056 3.284543 -1.918734 -15.869488 -14.488404 -0.299800 -1.224504 -16.014003 4.018983 -1.136757 15.697405 1.083521 4.010706 8.409539 0.000000 0.000000 0.000000 14.199689 -3.300006 19.346524 -7.099853 1.985994 10.720038 -2.183529 -7.192595 3.882114 0.000000 0.000000 0.000000 -4.987913 -0.052223 7.870423 -1.089269 0.423778 -1.421512 0.484764 4.080518 2.416370 0.232986 0.455251 -13.178647 0.000000 0.000000 0.000000 -11.617989 9.595800 -4.936373 -49.359330 2.812634 -6.850554 -15.349190 -23.784989 4.370022 0.000000 0.000000 0.000000 11.667578 5.395287 0.606496 59.304081 20.303484 4.534641 11.917139 29.953880 3.524766 0.000000 0.000000 0.000000 
-1.159736 0.927845 3.320491 -1.703456 -15.990043 -14.417604 -1.542177 -1.266811 -13.198558 4.929046 -0.812764 2.201854 0.554301 3.786114 12.731293 0.000000 0.000000 0.000000 13.118304 -3.453747 21.646290 -6.906799 1.975404 10.931410 -1.497845 -5.954821 4.295335 0.000000 0.000000 0.000000 -4.331565 -0.081367 7.575886 -1.697584 0.658818 -3.090602 1.907430 2.935030 4.652245 0.589330 0.007528 -12.679407 0.000000 0.000000 0.000000 -11.248495 9.489083 -4.615271 -51.050806 4.739885 -8.005231 -13.698700 -22.819512 3.982707 0.000000 0.000000 0.000000 9.726968 5.797968 0.766198 60.158278 21.683459 4.962443 13.487242 30.184216 3.824716 0.000000 0.000000 0.000000 
-1.161896 0.926655 3.358339 -1.749914 -17.986417 -13.119824 -1.534733 -1.179870 -12.430195 5.759142 -0.435309 -4.216087 0.160722 3.671342 17.246207 0.000000 0.000000 0.000000 11.382498 -3.204364 23.077546 -6.444463 1.904876 11.070490 0.139941 -2.378558 3.945202 0.000000 0.000000 0.000000 -3.625378 -0.098392 6.591779 -1.155516 0.414224 -2.183415 1.771812 4.241639 3.968949 1.498379 -0.626017 -11.202225 0.000000 0.000000 0.000000 -11.731772 9.173502 -4.581395 -51.948189 6.144447 -8.669946 -11.630589 -22.304622 3.434744 0.000000 0.000000 0.000000 11.254462 5.847301 0.650271 58.893516 21.974806 5.165221 14.094863 31.300263 4.154704 0.000000 0.000000 0.000000 
-1.163174 0.926211 3.398895 -1.918545 -18.529797 -11.957450 -1.821484 -1.102677 -10.934298 5.878232 -0.172995 -7.055613 -0.792083 3.234287 22.635499 0.000000 0.000000 0.000000 9.825686 -3.032606 24.592506 -5.626803 1.867516 12.044264 1.190174 0.087076 3.601939 0.000000 0.000000 0.000000 -3.057582 -0.110075 6.055229 -1.064912 0.413645 -1.135165 2.239476 3.163506 2.924093 1.783373 -1.013800 -9.336955 0.000000 0.000000 0.000000 -12.646307 7.722857 -3.850908 -53.206291 6.639103 -9.008074 -8.877043 -19.584939 2.533079 0.000000 0.000000 0.000000 11.859762 6.981172 0.827915 56.734492 21.151674 4.683931 15.935800 31.791991 4.533027 0.000000 0.000000 0.000000 
-1.163440 0.925356 3.442793 -1.832129 -20.192771 -10.394485 -2.161588 -1.120403 -10.829719 6.276674 -0.236684 -6.767933 -0.771938 3.868183 27.378598 0.000000 0.000000 0.000000 8.064525 -2.601180 25.615395 -5.598220 1.946324 12.614362 2.340752 1.876973 4.464116 0.000000 0.000000 0.000000 -2.456844 -0.113555 4.641282 -1.083168 0.453369 -0.444117 2.697488 3.712529 2.634802 1.660909 -0.934326 -9.545851 0.000000 0.000000 0.000000 -13.417454 7.551171 -3.790680 -53.268833 6.746232 -9.045461 -8.024779 -18.583365 2.261159 0.000000 0.000000 0.000000 12.070454 6.925674 0.709867 56.279658 20.261848 4.263614 15.456107 31.945667 4.396453 0.000000 0.000000 0.000000 
-1.163142 0.925430 3.491482 -1.356075 -21.960843 -9.171733 -2.939044 -1.156523 -10.233460 6.369719 -0.330848 -6.052076 -0.529690 4.195224 29.429731 0.000000 0.000000 0.000000 5.748519 -1.935599 26.953707 -5.828747 2.017145 12.727938 4.024824 3.381624 7.016066 0.000000 0.000000 0.000000 -1.540989 -0.118008 3.715147 -1.527432 0.654986 -0.685547 2.829282 3.653466 2.145704 0.595263 -0.302658 -8.465629 0.000000 0.000000 0.000000 -14.523057 6.519902 -3.209832 -53.713423 7.191610 -9.305989 -7.599806 -17.949600 2.131221 0.000000 0.000000 0.000000 12.320167 7.667149 0.807767 55.517689 18.358005 3.393689 15.011411 30.361618 3.960259 0.000000 0.000000 0.000000 
